<svg width="427" height="69" viewBox="0 0 427 69" fill="none" xmlns="http://www.w3.org/2000/svg">
<path fill-rule="evenodd" clip-rule="evenodd" d="M395.291 0.00100582C396.538 0.00328231 397.77 0.0375353 399.008 0.193389C399.106 0.205704 399.205 0.218787 399.307 0.231475C405.36 1.00792 411.508 3.17158 416.037 7.41995C416.214 7.58412 416.393 7.74262 416.575 7.90042C416.962 8.23943 417.329 8.59624 417.691 8.96097C417.757 9.02698 417.823 9.09315 417.891 9.16116C418.3 9.57736 418.687 9.99814 419.044 10.461C419.24 10.7103 419.444 10.951 419.649 11.1924C420.106 11.737 420.507 12.3135 420.896 12.9082C420.929 12.9597 420.964 13.0114 420.999 13.0645C422.869 15.9083 424.408 19.0426 425.217 22.3662C425.275 22.5834 425.334 22.8007 425.393 23.0176C425.436 23.1828 425.479 23.3484 425.522 23.5137C425.571 23.7036 425.624 23.8927 425.676 24.0821C425.984 25.2313 426.161 26.3882 426.32 27.5664C426.358 27.8296 426.402 28.0908 426.448 28.3526C427.069 32.0536 426.952 35.9643 426.535 39.6797C426.516 39.8667 426.497 40.0542 426.478 40.2412C425.771 46.7609 423.414 53.1835 419.199 58.2403C419.066 58.3998 418.934 58.5602 418.803 58.7207C417.917 59.7905 416.952 60.8096 415.86 61.67C415.613 61.8656 415.375 62.0713 415.136 62.2774C411.701 65.1468 407.227 67.2439 402.833 68.0821C402.607 68.1252 402.382 68.1719 402.157 68.2188C401.027 68.4497 399.89 68.6085 398.744 68.7422C398.63 68.7576 398.515 68.7732 398.397 68.7891C397.842 68.8503 397.286 68.8452 396.729 68.8457C396.61 68.846 396.491 68.8464 396.372 68.8467C396.124 68.8472 395.875 68.8468 395.627 68.8467C395.376 68.8467 395.126 68.8475 394.875 68.8487C393.43 68.8555 392.001 68.8396 390.565 68.6543C390.465 68.6419 390.365 68.6291 390.262 68.6162C386.831 68.1561 383.461 67.2113 380.363 65.6504C380.281 65.61 380.198 65.57 380.112 65.5284C378.319 64.6499 376.631 63.5659 375.087 62.294C375.041 62.2559 374.994 62.2179 374.946 62.1787C373.653 61.1089 372.375 59.9783 371.33 58.6582C371.156 58.4407 370.976 58.2303 370.792 58.0205C367.97 54.7662 366.191 50.6656 364.973 46.5703C364.949 46.4939 364.926 46.4167 364.901 46.3379C363.026 40.1734 362.971 33.3752 363.917 27.0479C363.93 26.9594 363.943 26.8705 363.956 26.7793C364.809 21.0234 367.104 15.3984 370.777 10.8819C370.815 10.8351 370.854 10.7885 370.893 10.7403C371.382 10.1395 371.895 9.56229 372.421 8.99417C372.474 8.93648 372.527 8.8788 372.582 8.81937C372.908 8.47113 373.248 8.1501 373.609 7.8389C373.797 7.67697 373.977 7.50741 374.157 7.33792C379.81 2.23199 387.568 -0.00934207 395.051 2.92592e-05C395.169 0.000109112 395.17 0.000924211 395.291 0.00100582ZM397.689 14.0625C396.016 13.8045 394.274 13.7588 392.601 14.0303C392.506 14.0465 392.505 14.0467 392.412 14.0625C390.499 14.386 388.763 14.9855 387.094 15.9873C383.532 18.1935 381.356 21.9865 380.379 25.9981C380.328 26.2128 380.276 26.4271 380.22 26.6407C379.543 29.1977 379.452 31.7736 379.451 34.4024C379.451 34.4697 379.451 34.5352 379.451 34.6006C379.449 36.0897 379.443 37.5752 379.635 39.0547C379.643 39.1171 379.651 39.1778 379.659 39.2383C379.891 40.9823 380.19 42.7894 380.818 44.4375C380.843 44.5018 380.867 44.5646 380.891 44.627C381.304 45.7354 381.722 46.8354 382.308 47.8653C384.164 51.0134 386.988 53.5054 390.564 54.4336C390.681 54.4621 390.799 54.4916 390.917 54.5205C393.804 55.3059 397.199 55.2541 400.049 54.3194C400.145 54.2869 400.145 54.2868 400.239 54.2549C401.356 53.8775 402.414 53.3971 403.405 52.7539C407.183 50.1376 409.269 45.9662 410.128 41.5254C410.153 41.3964 410.153 41.3961 410.178 41.2696C410.615 39.0723 410.738 36.885 410.738 34.6465C410.738 34.4731 410.738 34.2995 410.738 34.126C410.74 31.9965 410.713 29.8343 410.22 27.751C410.206 27.6922 410.192 27.6352 410.178 27.5782C409.676 25.3153 409.041 23.1492 407.898 21.1211C407.85 21.0361 407.85 21.0355 407.803 20.9522C407.204 19.8952 406.516 18.9026 405.639 18.0586C405.567 17.9914 405.497 17.9256 405.428 17.8604C403.344 15.8389 400.788 14.5136 397.901 14.0928C397.829 14.0825 397.759 14.0725 397.689 14.0625Z" fill="#0961F5"></path>
<path fill-rule="evenodd" clip-rule="evenodd" d="M264.977 0.00100582C266.223 0.00328231 267.455 0.0375353 268.693 0.193389C268.792 0.205704 268.891 0.218787 268.992 0.231475C275.045 1.00792 281.193 3.17158 285.723 7.41995C285.899 7.58412 286.079 7.74262 286.261 7.90042C286.648 8.23943 287.014 8.59624 287.377 8.96097C287.443 9.02698 287.509 9.09315 287.576 9.16116C287.986 9.57736 288.372 9.99814 288.73 10.461C288.926 10.7103 289.13 10.951 289.335 11.1924C289.791 11.737 290.192 12.3135 290.581 12.9082C290.615 12.9597 290.65 13.0114 290.685 13.0645C292.554 15.9083 294.094 19.0426 294.902 22.3662C294.961 22.5834 295.019 22.8007 295.078 23.0176C295.121 23.1828 295.164 23.3484 295.207 23.5137C295.257 23.7036 295.309 23.8927 295.361 24.0821C295.669 25.2313 295.846 26.3882 296.006 27.5664C296.044 27.8296 296.087 28.0908 296.134 28.3526C296.755 32.0536 296.637 35.9643 296.221 39.6797C296.201 39.8667 296.182 40.0542 296.163 40.2412C295.456 46.7609 293.099 53.1835 288.885 58.2403C288.752 58.3998 288.62 58.5602 288.488 58.7207C287.602 59.7905 286.637 60.8096 285.546 61.67C285.298 61.8656 285.061 62.0713 284.821 62.2774C281.386 65.1468 276.913 67.2439 272.519 68.0821C272.293 68.1252 272.068 68.1719 271.843 68.2188C270.713 68.4497 269.575 68.6085 268.43 68.7422C268.315 68.7576 268.2 68.7732 268.082 68.7891C267.527 68.8503 266.972 68.8452 266.414 68.8457C266.295 68.846 266.176 68.8464 266.058 68.8467C265.809 68.8472 265.561 68.8468 265.313 68.8467C265.062 68.8467 264.811 68.8475 264.561 68.8487C263.116 68.8555 261.686 68.8396 260.251 68.6543C260.151 68.6419 260.05 68.6291 259.947 68.6162C256.516 68.1561 253.147 67.2113 250.049 65.6504C249.966 65.61 249.883 65.57 249.798 65.5284C248.004 64.6499 246.317 63.5659 244.773 62.294C244.726 62.2559 244.679 62.2179 244.632 62.1787C243.339 61.1089 242.06 59.9783 241.016 58.6582C240.841 58.4407 240.661 58.2303 240.478 58.0205C237.655 54.7662 235.877 50.6656 234.658 46.5703C234.635 46.4939 234.611 46.4167 234.587 46.3379C232.711 40.1734 232.656 33.3752 233.603 27.0479C233.615 26.9594 233.628 26.8705 233.642 26.7793C234.495 21.0234 236.789 15.3984 240.463 10.8819C240.501 10.8351 240.539 10.7885 240.578 10.7403C241.067 10.1395 241.58 9.56229 242.107 8.99417C242.16 8.93648 242.213 8.8788 242.268 8.81937C242.594 8.47113 242.934 8.1501 243.295 7.8389C243.482 7.67697 243.662 7.50741 243.843 7.33792C249.496 2.23199 257.253 -0.00934207 264.736 2.92592e-05C264.855 0.000109112 264.855 0.000924211 264.977 0.00100582ZM267.374 14.0625C265.702 13.8045 263.96 13.7588 262.286 14.0303C262.191 14.0465 262.191 14.0467 262.098 14.0625C260.184 14.386 258.449 14.9855 256.779 15.9873C253.218 18.1935 251.042 21.9865 250.065 25.9981C250.013 26.2128 249.961 26.4271 249.905 26.6407C249.228 29.1977 249.137 31.7736 249.137 34.4024C249.137 34.4697 249.137 34.5352 249.137 34.6006C249.135 36.0897 249.129 37.5752 249.32 39.0547C249.329 39.1171 249.337 39.1778 249.345 39.2383C249.577 40.9823 249.876 42.7894 250.504 44.4375C250.529 44.5018 250.552 44.5646 250.576 44.627C250.989 45.7354 251.408 46.8354 251.993 47.8653C253.85 51.0134 256.673 53.5054 260.249 54.4336C260.367 54.4621 260.485 54.4916 260.603 54.5205C263.489 55.3059 266.884 55.2541 269.734 54.3194C269.83 54.2869 269.831 54.2868 269.925 54.2549C271.042 53.8775 272.099 53.3971 273.091 52.7539C276.869 50.1376 278.954 45.9662 279.814 41.5254C279.838 41.3964 279.839 41.3961 279.863 41.2696C280.3 39.0723 280.424 36.885 280.424 34.6465C280.424 34.4731 280.424 34.2995 280.424 34.126C280.425 31.9965 280.398 29.8343 279.905 27.751C279.891 27.6922 279.877 27.6352 279.863 27.5782C279.362 25.3153 278.726 23.1492 277.584 21.1211C277.536 21.0361 277.536 21.0355 277.488 20.9522C276.889 19.8952 276.201 18.9026 275.324 18.0586C275.253 17.9914 275.183 17.9256 275.113 17.8604C273.029 15.8389 270.473 14.5136 267.587 14.0928C267.515 14.0825 267.444 14.0725 267.374 14.0625Z" fill="#0961F5"></path>
<path d="M303.761 0.988281C337.43 0.988281 337.431 0.988883 341.314 2.22559C341.434 2.26288 341.435 2.26267 341.558 2.30078C344.285 3.15331 346.94 4.37305 349.034 6.36816C349.19 6.51652 349.347 6.65208 349.516 6.78516C349.838 7.06439 350.103 7.37299 350.373 7.70215C350.409 7.74551 350.444 7.78931 350.481 7.83398C353.248 11.1911 354.19 15.3252 353.871 19.626C353.819 20.1333 353.734 20.6307 353.627 21.1289C353.605 21.232 353.604 21.2327 353.582 21.3379C352.788 24.939 350.653 28.0092 347.575 30.0176C347.366 30.1496 347.155 30.2779 346.942 30.4043C346.888 30.4368 346.834 30.4695 346.778 30.5029C345.338 31.354 343.201 32.4208 341.49 32.3477V33.0547C341.566 33.0559 341.642 33.0573 341.721 33.0586C345.904 33.2178 349.772 35.1975 352.615 38.2334C354.33 40.2082 355.427 42.55 356.09 45.0684C356.119 45.1784 356.119 45.1789 356.148 45.291C356.441 46.4964 356.474 47.7162 356.474 48.9502C356.474 49.2168 356.477 49.4835 356.48 49.75C356.506 54.3352 354.612 58.5637 351.467 61.8359C351.067 62.2225 350.631 62.5658 350.197 62.9121C350.113 62.9813 350.029 63.0507 349.942 63.1221C346.185 66.1452 341.293 67.4522 336.576 67.8311C336.307 67.8578 336.04 67.9026 335.773 67.9473H303.761V0.988281ZM328.11 38.8594C327.762 38.8596 327.762 38.8601 327.021 38.8613C326.403 38.8638 325.803 38.8658 325.203 38.8682C323.236 38.8738 321.326 38.8793 319.416 38.8848V55.1387C321.427 55.1405 323.378 55.1427 325.33 55.1445C326.202 55.1457 327.075 55.146 327.947 55.1465C328.247 55.1465 328.546 55.147 328.846 55.1475C329.163 55.1481 329.481 55.1485 329.799 55.1484C329.919 55.1484 330.038 55.1484 330.158 55.1484C332.311 55.1548 334.368 54.8762 336.347 53.9775C338.003 53.1572 339.106 51.8785 339.726 50.1299C339.757 50.031 339.788 49.9348 339.819 49.8389C340.05 49.1266 340.1 48.4517 340.109 47.707C340.11 47.5456 340.11 47.5451 340.11 47.3867C340.113 46.7498 340.095 46.1442 339.954 45.5215C339.938 45.4575 339.923 45.3952 339.907 45.333C339.731 44.5774 339.443 43.901 339.076 43.2217C337.986 41.2704 336.047 40.0043 333.93 39.4043C333.86 39.3854 333.792 39.367 333.724 39.3486C333.531 39.2958 333.338 39.2482 333.143 39.2061C333.006 39.1778 333.005 39.1771 332.871 39.1494C331.527 38.865 330.198 38.8485 328.83 38.8564C328.59 38.8579 328.35 38.859 328.11 38.8594ZM327.865 13.5137C327.65 13.5146 327.434 13.5154 327.219 13.5156C326.907 13.5158 326.907 13.5158 326.243 13.5166C325.688 13.5183 325.149 13.5199 324.61 13.5215C322.844 13.5252 321.13 13.5286 319.416 13.5322V28.6377C321.126 28.6433 322.786 28.6488 324.445 28.6543C325.186 28.6577 325.927 28.6617 326.667 28.6631C326.869 28.6632 327.072 28.6637 327.274 28.6641C329.007 28.6754 330.763 28.6932 332.423 28.1211C332.515 28.0866 332.605 28.053 332.695 28.0195C333.317 27.8003 333.918 27.5632 334.487 27.2266C336.205 26.1511 337.317 24.5134 337.78 22.541C338.185 20.5586 337.827 18.5152 336.725 16.8232C335.455 15.0725 333.561 14.1744 331.496 13.748C331.426 13.7349 331.357 13.7218 331.288 13.709C330.205 13.5044 330.205 13.5044 327.865 13.5137Z" fill="#0961F5"></path>
<path d="M171.84 0.900303C178.931 0.894837 178.931 0.894837 186.164 0.889261C187.654 0.887653 189.144 0.886044 190.679 0.884387C192.505 0.883589 192.505 0.883589 193.362 0.883441C193.957 0.883277 194.552 0.882633 195.147 0.881651C195.835 0.880517 196.523 0.880017 197.211 0.880261C197.563 0.880366 197.914 0.880213 198.265 0.879241C200.428 0.873553 202.568 0.954387 204.705 1.3199C204.808 1.33726 204.808 1.33726 204.914 1.35498C210.159 2.24054 215.289 4.66785 218.628 8.93887C218.701 9.03101 218.775 9.12314 218.848 9.21527C221.041 11.9913 222.249 15.2882 222.849 18.7442C222.864 18.8269 222.879 18.9096 222.894 18.9948C223.843 24.5349 222.917 31.0399 219.707 35.7235C219.138 36.5275 218.513 37.2867 217.836 38.0014C217.77 38.0717 217.77 38.0717 217.702 38.1435C215.999 39.9343 213.982 41.2563 211.768 42.3298C212.231 43.2687 212.706 44.1993 213.197 45.1235C213.263 45.2479 213.329 45.3723 213.395 45.4967C213.802 46.2646 214.214 47.0299 214.63 47.7928C214.981 48.4358 215.326 49.0815 215.671 49.728C215.712 49.8063 215.712 49.8063 215.755 49.8862C215.783 49.9384 215.811 49.9906 215.839 50.0444C215.895 50.1499 215.952 50.2554 216.008 50.3608C216.036 50.4131 216.063 50.4653 216.092 50.5191C216.381 51.062 216.672 51.6041 216.962 52.1462C217.013 52.2402 217.063 52.3342 217.115 52.4311C217.217 52.6205 217.318 52.8099 217.42 52.9993C217.625 53.3809 217.83 53.7627 218.034 54.1445C218.137 54.3357 218.239 54.527 218.342 54.7182C218.601 55.201 218.859 55.6839 219.118 56.1668C219.595 57.0585 220.074 57.9494 220.557 58.8376C221.041 59.7255 221.517 60.6173 221.992 61.5096C222.02 61.5618 222.047 61.614 222.076 61.6678C222.104 61.7201 222.132 61.7723 222.16 61.8261C222.45 62.369 222.74 62.9111 223.031 63.4532C223.106 63.5929 223.106 63.5929 223.182 63.7354C223.445 64.2263 223.709 64.717 223.973 65.2075C224.028 65.3094 224.083 65.4113 224.139 65.5163C224.243 65.709 224.347 65.9017 224.451 66.0943C224.498 66.1827 224.546 66.271 224.595 66.362C224.636 66.4381 224.677 66.5141 224.719 66.5925C224.952 67.0408 225.175 67.4948 225.4 67.9473C219.77 67.9473 214.139 67.9473 208.338 67.9473C206.791 65.0227 206.791 65.0227 206.247 63.9928C205.458 62.5001 204.665 61.0101 203.869 59.5213C203.174 58.2223 202.485 56.9212 201.799 55.6175C201.353 54.7684 200.9 53.9228 200.44 53.0812C200.088 52.4351 199.749 51.7824 199.411 51.1283C199.111 50.5471 198.802 49.9708 198.488 49.3967C198.082 48.654 197.689 47.9054 197.301 47.1531C196.96 46.4949 196.608 45.8439 196.252 45.194C195.862 44.4791 195.489 43.7562 195.118 43.0313C194.807 42.4264 194.484 41.8302 194.13 41.2493C194.008 41.0415 193.916 40.8805 193.912 40.6359C194.045 40.4001 194.216 40.2886 194.437 40.1325C194.533 40.063 194.629 39.9933 194.725 39.9234C194.778 39.885 194.831 39.8467 194.886 39.8072C195.212 39.5658 195.53 39.3127 195.85 39.0614C196.295 38.7119 196.742 38.3659 197.196 38.029C198.457 37.0834 199.606 36.0011 200.72 34.8875C200.777 34.8302 200.835 34.7728 200.894 34.7137C201.282 34.3224 201.649 33.9166 202.006 33.4963C202.054 33.4394 202.103 33.3826 202.153 33.324C203.255 32.019 204.243 30.6572 205.084 29.1678C205.114 29.1148 205.145 29.0618 205.176 29.0072C206.236 27.1462 206.858 25.214 206.859 23.0616C206.861 22.8969 206.861 22.8969 206.863 22.7289C206.864 22.0025 206.802 21.3127 206.667 20.5992C206.649 20.5046 206.649 20.5046 206.631 20.4081C206.232 18.4764 205.108 16.7457 203.485 15.6358C202.877 15.236 202.25 14.9277 201.566 14.6807C201.504 14.6579 201.442 14.6352 201.378 14.6117C197.041 13.0512 191.567 13.7467 187.407 13.709C187.407 31.6076 187.407 49.5063 187.407 67.9473C125.676 67.9473 63.6017 67.9473 0 67.9473C0 64.3909 0 60.8345 0 57.1703C56.5941 57.1703 113.531 57.1703 171.84 57.1703C171.84 38.6012 171.84 20.0321 171.84 0.900303Z" fill="#0961F5"></path>
<path d="M90.7527 1.4303C101.027 1.4303 111.301 1.4303 121.886 1.4303C121.886 4.14133 121.886 6.85236 121.886 9.64554C114.863 9.64554 107.839 9.64554 100.603 9.64554C100.603 13.406 100.603 17.1665 100.603 21.0409C106.959 21.0409 113.315 21.0409 119.863 21.0409C119.863 23.7519 119.863 26.4629 119.863 29.2561C113.507 29.2561 107.151 29.2561 100.603 29.2561C100.603 35.7276 100.603 42.1991 100.603 48.8667C97.3522 48.8667 94.1017 48.8667 90.7527 48.8667C90.7527 33.2127 90.7527 17.5587 90.7527 1.4303Z" fill="black"></path>
<path d="M128.306 1.51862C138.754 1.51862 149.202 1.51862 159.967 1.51862C159.967 4.17134 159.967 6.82407 159.967 9.55719C152.741 9.55719 145.514 9.55719 138.068 9.55719C138.068 13.3759 138.068 17.1947 138.068 21.1292C144.743 21.1292 151.419 21.1292 158.296 21.1292C158.296 23.7819 158.296 26.4346 158.296 29.1678C151.621 29.1678 144.946 29.1678 138.068 29.1678C138.068 32.9865 138.068 36.8053 138.068 40.7398C145.324 40.7398 152.58 40.7398 160.055 40.7398C160.055 43.4216 160.055 46.1035 160.055 48.8667C149.578 48.8667 139.101 48.8667 128.306 48.8667C128.306 33.2418 128.306 17.617 128.306 1.51862Z" fill="black"></path>
<path d="M56.5412 1.51862C60.7205 1.51862 64.8997 1.51862 69.2056 1.51862C70.1141 4.05322 70.1141 4.05322 70.439 5.00857C70.4961 5.17594 70.5533 5.34331 70.6105 5.51067C70.6698 5.68433 70.729 5.85801 70.7881 6.03171C70.9135 6.39965 71.0391 6.76751 71.1648 7.13534C71.1862 7.1979 71.2076 7.26046 71.2296 7.32491C71.2729 7.4517 71.3162 7.57848 71.3595 7.70527C71.4245 7.89555 71.4895 8.08583 71.5545 8.27611C71.9627 9.47113 72.373 10.6654 72.784 11.8594C72.8525 12.0586 72.921 12.2577 72.9896 12.4568C73.1258 12.8527 73.2621 13.2486 73.3984 13.6445C73.7453 14.6523 74.0919 15.6603 74.4385 16.6682C74.578 17.0738 74.7175 17.4794 74.8569 17.8849C74.8914 17.9852 74.9259 18.0855 74.9615 18.1889C75.1685 18.7909 75.3756 19.3929 75.5828 19.9948C75.7547 20.4944 75.9266 20.994 76.0985 21.4936C76.1326 21.5926 76.1666 21.6916 76.2017 21.7936C76.6067 22.9707 77.011 24.1481 77.4143 25.3258C77.4539 25.4417 77.4936 25.5575 77.5333 25.6734C77.5928 25.8473 77.6524 26.0212 77.7119 26.195C77.7516 26.3109 77.7913 26.4268 77.8309 26.5427C77.8706 26.6586 77.9103 26.7745 77.95 26.8905C78.4435 28.3317 78.9391 29.7721 79.4405 31.2105C80.0003 32.8167 80.551 34.4261 81.1005 36.0359C81.1443 36.1642 81.1881 36.2925 81.2319 36.4209C81.2536 36.4844 81.2753 36.5479 81.2977 36.6134C81.4068 36.9331 81.5159 37.2528 81.6251 37.5724C81.6467 37.6356 81.6682 37.6987 81.6904 37.7638C82.0904 38.935 82.4919 40.1056 82.8945 41.2758C82.9959 41.5706 83.0972 41.8654 83.1986 42.1602C83.5127 43.0739 83.828 43.9872 84.1456 44.8997C84.2951 45.3294 84.4443 45.7592 84.5934 46.189C84.6644 46.3934 84.7357 46.5978 84.8072 46.8021C84.9054 47.0828 85.003 47.3638 85.1004 47.6448C85.1297 47.728 85.159 47.8112 85.1892 47.897C85.2288 48.0116 85.2288 48.0116 85.2691 48.1286C85.2922 48.1948 85.3153 48.261 85.3391 48.3291C85.3879 48.5133 85.3879 48.5133 85.3879 48.8667C81.4409 48.8667 77.4938 48.8667 73.4271 48.8667C73.2239 48.1379 73.0208 47.4091 72.8115 46.6583C72.6975 46.2672 72.583 45.8767 72.4652 45.4868C72.4363 45.3906 72.4074 45.2944 72.3776 45.1953C72.3177 44.9962 72.2577 44.7972 72.1977 44.5981C72.1077 44.3001 72.0181 44.0019 71.9286 43.7037C71.6241 42.6915 71.3147 41.6813 70.9911 40.6751C70.8184 40.1363 70.6637 39.5942 70.5159 39.048C70.3787 38.5434 70.2299 38.0431 70.0769 37.5431C69.8314 36.7368 69.589 35.9296 69.3486 35.1218C69.3154 35.0105 69.2822 34.8992 69.2481 34.7845C69.1117 34.3266 68.9753 33.8686 68.8393 33.4106C68.48 32.2018 68.1195 30.9937 67.7326 29.7935C67.561 29.2598 67.408 28.7227 67.2616 28.1816C67.1269 27.6866 66.9812 27.1958 66.8311 26.7054C66.5631 25.8256 66.2993 24.9447 66.0368 24.0633C65.9974 23.931 65.958 23.7988 65.9186 23.6666C65.757 23.1242 65.5954 22.5818 65.4341 22.0394C64.8371 20.0275 64.8371 20.0275 64.2089 18.0252C64.0159 17.4262 63.8466 16.822 63.6825 16.2145C63.5111 15.5825 63.3232 14.9551 63.1373 14.3273C62.5668 16.0229 62.013 17.7235 61.4718 19.4287C61.4434 19.518 61.4151 19.6072 61.3859 19.6991C61.0257 20.833 61.0257 20.833 60.6744 21.9698C60.096 23.8681 59.4766 25.754 58.8685 27.643C58.7714 27.9447 58.6743 28.2465 58.5773 28.5483C58.5237 28.7147 58.4701 28.8811 58.4165 29.0475C58.2238 29.647 58.0361 30.2478 57.8526 30.8502C57.7451 31.2006 57.6331 31.5494 57.5196 31.8979C57.4976 31.9661 57.4755 32.0343 57.4527 32.1046C57.3604 32.3896 57.2678 32.6746 57.1752 32.9596C57.1068 33.1707 57.0384 33.3817 56.97 33.5928C56.9498 33.6548 56.9296 33.7168 56.9089 33.7806C56.7854 34.1617 56.6665 34.544 56.5497 34.9272C56.3646 35.5332 56.172 36.1367 55.9778 36.7398C55.9417 36.8523 55.9056 36.9647 55.8695 37.0772C55.7373 37.4888 55.6049 37.9003 55.4726 38.3118C55.3601 38.6616 55.2477 39.0114 55.1354 39.3612C55.0837 39.5223 55.0318 39.6834 54.9799 39.8445C54.8232 40.3324 54.6688 40.8208 54.5195 41.3111C54.3324 41.9247 54.1362 42.5352 53.9389 43.1455C53.901 43.2631 53.8631 43.3806 53.8253 43.4982C53.6667 43.9905 53.5079 44.4827 53.349 44.9748C53.2509 45.2785 53.153 45.5822 53.0552 45.886C53.0011 46.0538 52.9469 46.2215 52.8926 46.3892C52.628 47.2116 52.3869 48.0367 52.1439 48.8667C48.2258 48.8667 44.3078 48.8667 40.271 48.8667C40.389 48.3333 40.5125 47.843 40.6939 47.3339C40.7184 47.264 40.7428 47.1941 40.768 47.1222C40.8212 46.9702 40.8747 46.8183 40.9283 46.6665C41.0776 46.2436 41.2254 45.8201 41.3734 45.3967C41.4209 45.2613 41.4209 45.2613 41.4693 45.1232C41.8117 44.145 42.1485 43.1649 42.485 42.1846C42.6627 41.6672 42.8405 41.1498 43.0183 40.6325C43.0535 40.5302 43.0886 40.4278 43.1249 40.3224C43.4789 39.2926 43.8344 38.2632 44.1901 37.2339C44.7021 35.7527 45.2133 34.2713 45.7237 32.7895C46.238 31.2968 46.7528 29.8043 47.2683 28.312C47.299 28.2231 47.3297 28.1342 47.3614 28.0426C47.6085 27.3273 47.8557 26.6119 48.1029 25.8966C48.3194 25.2699 48.5359 24.6433 48.7524 24.0167C48.7831 23.928 48.8137 23.8393 48.8453 23.7479C49.199 22.7241 49.5523 21.7002 49.905 20.6761C49.9382 20.5796 49.9715 20.4831 50.0057 20.3837C50.0729 20.1886 50.1401 19.9936 50.2072 19.7986C50.2405 19.702 50.2737 19.6055 50.308 19.506C50.3413 19.4094 50.3745 19.3127 50.4088 19.2132C50.8756 17.8578 51.3449 16.5033 51.8161 15.1495C52.3104 13.7285 52.7992 12.3055 53.2872 10.8822C53.8125 9.35025 54.3389 7.81863 54.8702 6.28876C54.9063 6.18482 54.9063 6.18482 54.9431 6.07879C55.4714 4.55716 56.0073 3.03824 56.5412 1.51862Z" fill="black"></path>
<path d="M25.1441 1.4303C25.2409 1.4525 25.2409 1.4525 25.3397 1.47515C29.194 2.37861 32.8506 4.55528 34.9942 7.96716C35.0437 8.04583 35.0437 8.04583 35.0942 8.1261C36.4401 10.3056 36.8129 12.4718 37.017 15.034C33.9116 15.034 30.8062 15.034 27.6066 15.034C27.4906 14.5385 27.3745 14.0429 27.2549 13.5323C27.1513 13.2632 27.0597 13.0348 26.9251 12.787C26.8948 12.7291 26.8645 12.6713 26.8333 12.6117C25.8937 10.871 24.3305 10.0263 22.5067 9.46956C22.3894 9.43881 22.2718 9.40921 22.1539 9.38053C22.0875 9.36408 22.021 9.34764 21.9525 9.33069C21.2394 9.17692 20.5313 9.17398 19.8054 9.17597C19.5946 9.17625 19.384 9.17418 19.1733 9.17194C16.9113 9.16269 14.6867 9.70952 13.0112 11.3118C12.0197 12.3598 11.8039 13.6037 11.8308 14.9912C11.8803 16.0342 12.3532 16.7984 13.0349 17.5571C15.1824 19.5135 18.0829 20.0948 20.8308 20.7263C21.7483 20.9374 22.6583 21.1715 23.5676 21.4155C23.816 21.4802 24.0652 21.5411 24.3147 21.6016C25.1363 21.8025 25.941 22.0437 26.7437 22.3107C26.8114 22.3332 26.8792 22.3557 26.949 22.3788C28.7802 22.9924 30.6151 23.7762 32.1799 24.9277C32.2278 24.9627 32.2757 24.9977 32.325 25.0338C34.9123 26.9375 36.7663 29.4345 37.4567 32.6129C37.4865 32.7468 37.4865 32.7468 37.5169 32.8834C37.7206 34.0123 37.6554 35.1811 37.6326 36.323C37.6314 36.391 37.6302 36.459 37.6289 36.529C37.5532 39.615 36.0927 42.422 34.0268 44.6266C33.9545 44.7062 33.9545 44.7062 33.8808 44.7874C31.3788 47.4424 27.4155 48.7204 23.9129 49.22C23.8232 49.2341 23.7334 49.2482 23.641 49.2627C22.2948 49.4713 20.9627 49.5081 19.6034 49.5071C19.5241 49.5071 19.4448 49.507 19.3631 49.507C17.8637 49.5032 16.3672 49.4672 14.8818 49.2476C14.7779 49.2324 14.6741 49.2172 14.5671 49.2015C10.8075 48.6213 7.33599 47.1902 4.56446 44.5382C4.49576 44.4749 4.42706 44.4116 4.35627 44.3464C2.04309 42.147 0.942926 38.8836 0.518887 35.793C0.509563 35.7265 0.500238 35.6601 0.490631 35.5917C0.423129 35.0591 0.43094 34.5746 0.43094 34.0263C3.5944 34.0263 6.75787 34.0263 10.0172 34.0263C10.1043 34.6821 10.1043 34.6821 10.1931 35.3513C10.6503 37.2398 11.7 38.7622 13.3483 39.7766C14.5944 40.5133 15.8997 40.8541 17.3168 41.0931C17.46 41.1191 17.46 41.1191 17.6061 41.1456C20.2694 41.4384 23.4531 41.1185 25.6388 39.4092C25.7686 39.295 25.897 39.1792 26.0236 39.0614C26.078 39.0157 26.1324 38.9701 26.1885 38.923C27.1004 38.1073 27.5658 36.9032 27.6369 35.705C27.6718 34.7982 27.6433 34.0292 27.1669 33.2312C27.1222 33.1537 27.0776 33.0761 27.0315 32.9962C25.2379 30.1657 20.5671 29.5114 17.5744 28.8076C16.9715 28.6657 16.3698 28.5188 15.7679 28.3724C15.401 28.2836 15.0344 28.1954 14.6647 28.1191C11.1411 27.3674 7.61511 25.8687 5.0042 23.3376C4.92824 23.2669 4.85228 23.1962 4.77402 23.1233C2.73668 21.1758 1.73301 18.3654 1.64434 15.5789C1.58587 11.8313 2.90315 8.53702 5.46626 5.82432C5.8447 5.44476 6.25133 5.11368 6.6752 4.78706C6.75331 4.72386 6.83142 4.66067 6.9119 4.59555C8.44091 3.38872 10.2764 2.4628 12.1279 1.87198C12.2128 1.84442 12.2978 1.81686 12.3852 1.78847C16.5029 0.530387 20.9636 0.460883 25.1441 1.4303Z" fill="black"></path>
</svg>
